<svg xmlns="http://www.w3.org/2000/svg" width="96" height="96" viewBox="0 0 96 96" fill="none"><g id="fi_9474810"><g id="Group"><path id="Vector" d="M70 36.7354C70 39.6332 69.3366 42.4141 68.1145 44.9991L42.8266 61.1004C40.9342 61.353 38.9886 61.4854 37 61.4854C31.0325 61.4854 25.4483 60.2788 20.6186 58.2008L11.7206 62.0147L14.7405 54.9696C8.15422 50.4441 4 43.961 4 36.7354C4 23.0661 18.7744 11.9854 37 11.9854C55.2256 11.9854 70 23.0661 70 36.7354Z" fill="#055A5F"></path><path id="Vector_2" d="M39.75 44.9854H34.25V33.9854H37C40.032 33.9854 42.5 31.5174 42.5 28.4854C42.5 25.4533 40.032 22.9854 37 22.9854C33.968 22.9854 31.5 25.4533 31.5 28.4854V31.2354H26V28.4854C26 22.4187 30.9333 17.4854 37 17.4854C43.0667 17.4854 48 22.4187 48 28.4854C48 33.6014 44.49 37.9142 39.75 39.1363V44.9854Z" fill="#269EA6"></path><path id="Vector_3" d="M34.25 50.4854H39.75V55.9854H34.25V50.4854Z" fill="#269EA6"></path><path id="Vector_4" d="M86.4502 76.246L89.7794 84.0148L80.9794 80.2438C77.0503 82.2857 72.3323 83.4854 67.25 83.4854C53.5808 83.4854 42.5 74.8676 42.5 64.2354C42.5 63.1681 42.6117 62.1213 42.8266 61.1004L68.1145 44.9991C81.3833 45.3515 92 53.8284 92 64.2354C92 68.8038 89.8687 72.9443 86.4502 76.246Z" fill="#269EA6"></path><path id="Vector_5" d="M68.1145 44.9991C64.2078 53.2749 54.5965 59.5277 42.8265 61.1003C44.7515 51.96 54.9523 44.9854 67.25 44.9854C67.5387 44.9854 67.8275 44.9888 68.1145 44.9991Z" fill="#FFC947"></path><g id="Group_2"><path id="Vector_6" d="M53.5 61.4854H59V66.9854H53.5V61.4854Z" fill="#055A5F"></path><path id="Vector_7" d="M64.5 61.4854H70V66.9854H64.5V61.4854Z" fill="#055A5F"></path><path id="Vector_8" d="M75.5 61.4854H81V66.9854H75.5V61.4854Z" fill="#055A5F"></path></g></g></g></svg>