<svg xmlns="http://www.w3.org/2000/svg" width="96" height="96" viewBox="0 0 96 96" fill="none"><g id="upgrade 1" clip-path="url(#clip0_16_476)"><g id="Group"><path id="Vector" d="M27 66C31.9706 66 36 61.9706 36 57C36 52.0294 31.9706 48 27 48C22.0294 48 18 52.0294 18 57C18 61.9706 22.0294 66 27 66Z" fill="#269EA6"></path><path id="Vector_2" d="M48 82.395C46.2356 83.4169 44.1862 84 42 84V96H12V84C5.37188 84 0 78.6281 0 72V42C0 38.6869 2.68687 36 6 36C9.31312 36 12 38.6869 12 42V66C12 69.3131 14.6869 72 18 72H36C39.3131 72 42 69.3131 42 66L48 82.395Z" fill="#269EA6"></path><path id="Vector_3" d="M69 66C73.9706 66 78 61.9706 78 57C78 52.0294 73.9706 48 69 48C64.0294 48 60 52.0294 60 57C60 61.9706 64.0294 66 69 66Z" fill="#269EA6"></path><path id="Vector_4" d="M96 42V72C96 78.6281 90.6281 84 84 84V96H54V84C51.8138 84 49.7644 83.4169 48 82.395L54 66C54 69.3131 56.6869 72 60 72H78C81.3131 72 84 69.3131 84 66V42C84 38.6869 86.6869 36 90 36C93.3131 36 96 38.6869 96 42Z" fill="#269EA6"></path><path id="Vector_5" d="M54 42V72C54 76.4419 51.5869 80.3213 48 82.395C44.4131 80.3213 42 76.4419 42 72V42C42 38.6869 44.6869 36 48 36C51.3131 36 54 38.6869 54 42Z" fill="#055A5F"></path><g id="Group_2"><path id="Vector_6" d="M72 0L63 12H69V30H75V12H81L72 0Z" fill="#FFC947"></path><path id="Vector_7" d="M24 0L15 12H21V30H27V12H33L24 0Z" fill="#FFC947"></path><path id="Vector_8" d="M48 0L39 12H45V30H51V12H57L48 0Z" fill="#FFC947"></path></g></g></g><defs><clipPath id="clip0_16_476"><rect width="96" height="96" fill="white"></rect></clipPath></defs></svg>